<svg xmlns="http://www.w3.org/2000/svg" viewBox="0 0 32 32">
  <!-- White background -->
  <rect width="32" height="32" fill="white"/>
  <!-- Red lobster -->
  <!-- Claws -->
  <path d="M6 8c-2-2-2-5 1-6s5 2 4 5l-2 3c1 1 2 2 2 3l-3-1z" fill="#E53935"/>
  <path d="M26 8c2-2 2-5-1-6s-5 2-4 5l2 3c-1 1-2 2-2 3l3-1z" fill="#E53935"/>
  <!-- Claw pincers -->
  <path d="M4 4c-1-1 0-3 2-2 1 0 2 2 1 3z" fill="#EF5350"/>
  <path d="M28 4c1-1 0-3-2-2-1 0-2 2-1 3z" fill="#EF5350"/>
  <!-- Antennae -->
  <path d="M14 8c-1-3-3-5-3-7" stroke="#E53935" stroke-width="1.5" fill="none" stroke-linecap="round"/>
  <path d="M18 8c1-3 3-5 3-7" stroke="#E53935" stroke-width="1.5" fill="none" stroke-linecap="round"/>
  <!-- Head -->
  <ellipse cx="16" cy="10" rx="5" ry="4" fill="#E53935"/>
  <!-- Eyes -->
  <circle cx="14" cy="9" r="1.5" fill="#1a1a1a"/>
  <circle cx="18" cy="9" r="1.5" fill="#1a1a1a"/>
  <!-- Body segments -->
  <rect x="12" y="13" width="8" height="4" rx="2" fill="#E53935"/>
  <rect x="11" y="16" width="10" height="4" rx="2" fill="#C62828"/>
  <rect x="12" y="19" width="8" height="4" rx="2" fill="#B71C1C"/>
  <!-- Tail -->
  <path d="M12 23l4 6 4-6z" fill="#C62828"/>
  <ellipse cx="16" cy="29" rx="4" ry="2" fill="#E53935"/>
  <!-- Legs -->
  <path d="M12 14l-4 3M12 17l-5 2M12 20l-4 3" stroke="#E53935" stroke-width="1.5" stroke-linecap="round"/>
  <path d="M20 14l4 3M20 17l5 2M20 20l4 3" stroke="#E53935" stroke-width="1.5" stroke-linecap="round"/>
</svg>
